<svg width="221" height="79" viewBox="0 0 221 79" fill="none" xmlns="http://www.w3.org/2000/svg">
<path d="M44.85 25V21.425H47.8V11.075H44.85V7.5H55.025V11.075H52.05V21.425H55.025V25H44.85ZM63.1172 25.25C61.8172 25.25 60.6672 25.0417 59.6672 24.625C58.6839 24.2083 57.9005 23.65 57.3172 22.95L59.7422 20.85C60.2589 21.3667 60.8422 21.75 61.4922 22C62.1422 22.2333 62.7589 22.35 63.3422 22.35C63.5755 22.35 63.7839 22.325 63.9672 22.275C64.1505 22.225 64.3005 22.1583 64.4172 22.075C64.5505 21.975 64.6505 21.8667 64.7172 21.75C64.7839 21.6167 64.8172 21.4667 64.8172 21.3C64.8172 20.9667 64.6672 20.7083 64.3672 20.525C64.2172 20.4417 63.9672 20.3417 63.6172 20.225C63.2672 20.1083 62.8172 19.975 62.2672 19.825C61.4839 19.625 60.8005 19.3917 60.2172 19.125C59.6505 18.8417 59.1839 18.5167 58.8172 18.15C58.4839 17.8 58.2255 17.4167 58.0422 17C57.8589 16.5667 57.7672 16.0833 57.7672 15.55C57.7672 14.9333 57.9089 14.375 58.1922 13.875C58.4922 13.375 58.8839 12.9417 59.3672 12.575C59.8672 12.2083 60.4339 11.9333 61.0672 11.75C61.7172 11.55 62.3839 11.45 63.0672 11.45C63.8005 11.45 64.5005 11.5333 65.1672 11.7C65.8339 11.8667 66.4505 12.1 67.0172 12.4C67.6005 12.7 68.1172 13.0583 68.5672 13.475L66.4672 15.825C66.1672 15.5417 65.8255 15.2917 65.4422 15.075C65.0755 14.8417 64.6922 14.6583 64.2922 14.525C63.8922 14.3917 63.5255 14.325 63.1922 14.325C62.9422 14.325 62.7172 14.35 62.5172 14.4C62.3339 14.4333 62.1755 14.5 62.0422 14.6C61.9089 14.6833 61.8089 14.7917 61.7422 14.925C61.6755 15.0417 61.6422 15.1833 61.6422 15.35C61.6422 15.5167 61.6839 15.675 61.7672 15.825C61.8672 15.975 62.0005 16.1 62.1672 16.2C62.3339 16.3 62.6005 16.4167 62.9672 16.55C63.3339 16.6667 63.8339 16.8167 64.4672 17C65.2505 17.2167 65.9255 17.4583 66.4922 17.725C67.0589 17.9917 67.5089 18.3083 67.8422 18.675C68.1089 18.9583 68.3089 19.2917 68.4422 19.675C68.5755 20.0417 68.6422 20.4417 68.6422 20.875C68.6422 21.725 68.4005 22.4833 67.9172 23.15C67.4505 23.8 66.8005 24.3167 65.9672 24.7C65.1339 25.0667 64.1839 25.25 63.1172 25.25ZM75.9201 25.225C74.8035 25.225 73.8035 24.9333 72.9201 24.35C72.0535 23.75 71.3618 22.9333 70.8451 21.9C70.3285 20.85 70.0701 19.6667 70.0701 18.35C70.0701 17 70.3285 15.8083 70.8451 14.775C71.3618 13.7417 72.0701 12.9333 72.9701 12.35C73.8701 11.75 74.8951 11.45 76.0451 11.45C76.6785 11.45 77.2535 11.5417 77.7701 11.725C78.3035 11.9083 78.7701 12.1667 79.1701 12.5C79.5701 12.8167 79.9118 13.1917 80.1951 13.625C80.4785 14.0417 80.6868 14.4917 80.8201 14.975L79.9951 14.875V11.725H83.9701V25H79.9201V21.8L80.8201 21.775C80.6868 22.2417 80.4701 22.6833 80.1701 23.1C79.8701 23.5167 79.5035 23.8833 79.0701 24.2C78.6368 24.5167 78.1535 24.7667 77.6201 24.95C77.0868 25.1333 76.5201 25.225 75.9201 25.225ZM77.0201 21.85C77.6368 21.85 78.1701 21.7083 78.6201 21.425C79.0701 21.1417 79.4201 20.7417 79.6701 20.225C79.9201 19.6917 80.0451 19.0667 80.0451 18.35C80.0451 17.6333 79.9201 17.0167 79.6701 16.5C79.4201 15.9667 79.0701 15.5583 78.6201 15.275C78.1701 14.975 77.6368 14.825 77.0201 14.825C76.4201 14.825 75.8951 14.975 75.4451 15.275C75.0118 15.5583 74.6701 15.9667 74.4201 16.5C74.1701 17.0167 74.0451 17.6333 74.0451 18.35C74.0451 19.0667 74.1701 19.6917 74.4201 20.225C74.6701 20.7417 75.0118 21.1417 75.4451 21.425C75.8951 21.7083 76.4201 21.85 77.0201 21.85ZM95.4746 25.275C94.8746 25.275 94.2996 25.1917 93.7496 25.025C93.1996 24.8583 92.6996 24.6333 92.2496 24.35C91.8163 24.0667 91.4496 23.7417 91.1496 23.375C90.8663 22.9917 90.6746 22.6 90.5746 22.2L91.4496 21.9L91.2246 24.975H87.4996V6.5H91.5246V14.9L90.6996 14.6C90.7996 14.1667 90.9913 13.7667 91.2746 13.4C91.5579 13.0167 91.9163 12.6833 92.3496 12.4C92.7829 12.1 93.2579 11.8667 93.7746 11.7C94.2913 11.5333 94.8246 11.45 95.3746 11.45C96.5246 11.45 97.5413 11.75 98.4246 12.35C99.3246 12.9333 100.033 13.75 100.55 14.8C101.066 15.8333 101.325 17.0167 101.325 18.35C101.325 19.7 101.066 20.9 100.55 21.95C100.05 22.9833 99.3579 23.8 98.4746 24.4C97.5913 24.9833 96.5913 25.275 95.4746 25.275ZM94.4246 21.9C95.0246 21.9 95.5496 21.75 95.9996 21.45C96.4496 21.15 96.7913 20.7417 97.0246 20.225C97.2746 19.6917 97.3996 19.0667 97.3996 18.35C97.3996 17.65 97.2746 17.0333 97.0246 16.5C96.7913 15.9667 96.4496 15.5583 95.9996 15.275C95.5496 14.9917 95.0246 14.85 94.4246 14.85C93.8079 14.85 93.2746 14.9917 92.8246 15.275C92.3746 15.5583 92.0246 15.9667 91.7746 16.5C91.5246 17.0333 91.3996 17.65 91.3996 18.35C91.3996 19.0667 91.5246 19.6917 91.7746 20.225C92.0246 20.7417 92.3746 21.15 92.8246 21.45C93.2746 21.75 93.8079 21.9 94.4246 21.9ZM110.28 25.25C108.813 25.25 107.538 24.9583 106.455 24.375C105.371 23.775 104.53 22.9667 103.93 21.95C103.33 20.9167 103.03 19.7417 103.03 18.425C103.03 17.4083 103.196 16.475 103.53 15.625C103.863 14.775 104.33 14.0417 104.93 13.425C105.53 12.7917 106.238 12.3083 107.055 11.975C107.888 11.625 108.796 11.45 109.78 11.45C110.713 11.45 111.563 11.6167 112.33 11.95C113.113 12.2833 113.788 12.75 114.355 13.35C114.921 13.95 115.355 14.6583 115.655 15.475C115.955 16.2917 116.088 17.1833 116.055 18.15L116.03 19.225H105.455L104.88 16.975H112.78L112.355 17.45V16.95C112.321 16.5333 112.188 16.1667 111.955 15.85C111.738 15.5167 111.446 15.2583 111.08 15.075C110.713 14.8917 110.296 14.8 109.83 14.8C109.18 14.8 108.621 14.9333 108.155 15.2C107.705 15.45 107.363 15.825 107.13 16.325C106.896 16.8083 106.78 17.4083 106.78 18.125C106.78 18.8583 106.93 19.5 107.23 20.05C107.546 20.5833 107.996 21 108.58 21.3C109.18 21.6 109.888 21.75 110.705 21.75C111.271 21.75 111.771 21.6667 112.205 21.5C112.655 21.3333 113.138 21.05 113.655 20.65L115.53 23.3C115.013 23.75 114.463 24.1167 113.88 24.4C113.296 24.6833 112.696 24.8917 112.08 25.025C111.48 25.175 110.88 25.25 110.28 25.25ZM118.628 25V6.5H122.628V25H118.628ZM126.221 25V6.5H130.221V25H126.221ZM138.445 25.225C137.328 25.225 136.328 24.9333 135.445 24.35C134.578 23.75 133.886 22.9333 133.37 21.9C132.853 20.85 132.595 19.6667 132.595 18.35C132.595 17 132.853 15.8083 133.37 14.775C133.886 13.7417 134.595 12.9333 135.495 12.35C136.395 11.75 137.42 11.45 138.57 11.45C139.203 11.45 139.778 11.5417 140.295 11.725C140.828 11.9083 141.295 12.1667 141.695 12.5C142.095 12.8167 142.436 13.1917 142.72 13.625C143.003 14.0417 143.211 14.4917 143.345 14.975L142.52 14.875V11.725H146.495V25H142.445V21.8L143.345 21.775C143.211 22.2417 142.995 22.6833 142.695 23.1C142.395 23.5167 142.028 23.8833 141.595 24.2C141.161 24.5167 140.678 24.7667 140.145 24.95C139.611 25.1333 139.045 25.225 138.445 25.225ZM139.545 21.85C140.161 21.85 140.695 21.7083 141.145 21.425C141.595 21.1417 141.945 20.7417 142.195 20.225C142.445 19.6917 142.57 19.0667 142.57 18.35C142.57 17.6333 142.445 17.0167 142.195 16.5C141.945 15.9667 141.595 15.5583 141.145 15.275C140.695 14.975 140.161 14.825 139.545 14.825C138.945 14.825 138.42 14.975 137.97 15.275C137.536 15.5583 137.195 15.9667 136.945 16.5C136.695 17.0167 136.57 17.6333 136.57 18.35C136.57 19.0667 136.695 19.6917 136.945 20.225C137.195 20.7417 137.536 21.1417 137.97 21.425C138.42 21.7083 138.945 21.85 139.545 21.85ZM74.1234 56L67.1234 38.5H71.5484L74.9234 47.425C75.1234 47.9417 75.2901 48.3917 75.4234 48.775C75.5734 49.1583 75.6984 49.5167 75.7984 49.85C75.9151 50.1833 76.0151 50.525 76.0984 50.875C76.1984 51.2083 76.3068 51.5917 76.4234 52.025H75.6484C75.7818 51.4583 75.9151 50.9583 76.0484 50.525C76.1818 50.075 76.3318 49.6167 76.4984 49.15C76.6651 48.6667 76.8734 48.0917 77.1234 47.425L80.3734 38.5H84.7234L77.6734 56H74.1234ZM91.357 56.25C89.9737 56.25 88.7404 55.95 87.657 55.35C86.5904 54.75 85.7404 53.9333 85.107 52.9C84.4904 51.8667 84.182 50.6833 84.182 49.35C84.182 48.0167 84.4904 46.8333 85.107 45.8C85.7404 44.7667 86.5904 43.95 87.657 43.35C88.7404 42.75 89.9737 42.45 91.357 42.45C92.7404 42.45 93.9654 42.75 95.032 43.35C96.1154 43.95 96.9654 44.7667 97.582 45.8C98.1987 46.8333 98.507 48.0167 98.507 49.35C98.507 50.6833 98.1987 51.8667 97.582 52.9C96.9654 53.9333 96.1154 54.75 95.032 55.35C93.9654 55.95 92.7404 56.25 91.357 56.25ZM91.357 52.8C91.957 52.8 92.4904 52.65 92.957 52.35C93.4237 52.05 93.7904 51.6417 94.057 51.125C94.3237 50.6083 94.4487 50.0167 94.432 49.35C94.4487 48.6833 94.3237 48.0917 94.057 47.575C93.7904 47.0417 93.4237 46.625 92.957 46.325C92.4904 46.025 91.957 45.875 91.357 45.875C90.757 45.875 90.2154 46.025 89.732 46.325C89.2654 46.625 88.8987 47.0417 88.632 47.575C88.3654 48.0917 88.2404 48.6833 88.257 49.35C88.2404 50.0167 88.3654 50.6083 88.632 51.125C88.8987 51.6417 89.2654 52.05 89.732 52.35C90.2154 52.65 90.757 52.8 91.357 52.8ZM101.348 56V42.725H105.348V56H101.348ZM103.348 40.1C102.598 40.1 102.006 39.925 101.573 39.575C101.156 39.2083 100.948 38.6917 100.948 38.025C100.948 37.425 101.164 36.9333 101.598 36.55C102.031 36.1667 102.614 35.975 103.348 35.975C104.098 35.975 104.681 36.1583 105.098 36.525C105.514 36.875 105.723 37.375 105.723 38.025C105.723 38.6417 105.506 39.1417 105.073 39.525C104.656 39.9083 104.081 40.1 103.348 40.1ZM114.931 56.25C113.648 56.25 112.498 55.95 111.481 55.35C110.464 54.75 109.656 53.9333 109.056 52.9C108.473 51.85 108.181 50.6667 108.181 49.35C108.181 48.0333 108.473 46.8583 109.056 45.825C109.656 44.775 110.464 43.95 111.481 43.35C112.498 42.75 113.648 42.45 114.931 42.45C116.114 42.45 117.198 42.6583 118.181 43.075C119.181 43.4917 119.973 44.075 120.556 44.825L118.381 47.425C118.148 47.1583 117.873 46.9083 117.556 46.675C117.239 46.4417 116.889 46.2583 116.506 46.125C116.123 45.9917 115.723 45.925 115.306 45.925C114.673 45.925 114.114 46.075 113.631 46.375C113.148 46.6583 112.773 47.0583 112.506 47.575C112.239 48.0917 112.106 48.6833 112.106 49.35C112.106 49.9833 112.239 50.5583 112.506 51.075C112.789 51.5917 113.173 52 113.656 52.3C114.139 52.6 114.689 52.75 115.306 52.75C115.739 52.75 116.139 52.7 116.506 52.6C116.873 52.4833 117.206 52.3167 117.506 52.1C117.823 51.8833 118.114 51.6167 118.381 51.3L120.531 53.925C119.964 54.6417 119.173 55.2083 118.156 55.625C117.156 56.0417 116.081 56.25 114.931 56.25ZM129.054 56.25C127.587 56.25 126.312 55.9583 125.229 55.375C124.146 54.775 123.304 53.9667 122.704 52.95C122.104 51.9167 121.804 50.7417 121.804 49.425C121.804 48.4083 121.971 47.475 122.304 46.625C122.637 45.775 123.104 45.0417 123.704 44.425C124.304 43.7917 125.012 43.3083 125.829 42.975C126.662 42.625 127.571 42.45 128.554 42.45C129.487 42.45 130.337 42.6167 131.104 42.95C131.887 43.2833 132.562 43.75 133.129 44.35C133.696 44.95 134.129 45.6583 134.429 46.475C134.729 47.2917 134.862 48.1833 134.829 49.15L134.804 50.225H124.229L123.654 47.975H131.554L131.129 48.45V47.95C131.096 47.5333 130.962 47.1667 130.729 46.85C130.512 46.5167 130.221 46.2583 129.854 46.075C129.487 45.8917 129.071 45.8 128.604 45.8C127.954 45.8 127.396 45.9333 126.929 46.2C126.479 46.45 126.137 46.825 125.904 47.325C125.671 47.8083 125.554 48.4083 125.554 49.125C125.554 49.8583 125.704 50.5 126.004 51.05C126.321 51.5833 126.771 52 127.354 52.3C127.954 52.6 128.662 52.75 129.479 52.75C130.046 52.75 130.546 52.6667 130.979 52.5C131.429 52.3333 131.912 52.05 132.429 51.65L134.304 54.3C133.787 54.75 133.237 55.1167 132.654 55.4C132.071 55.6833 131.471 55.8917 130.854 56.025C130.254 56.175 129.654 56.25 129.054 56.25ZM136.878 50.65V46.975H145.528V50.65H136.878ZM157.134 56.25C155.734 56.25 154.467 56.025 153.334 55.575C152.2 55.125 151.225 54.4917 150.409 53.675C149.592 52.8583 148.967 51.9 148.534 50.8C148.1 49.6833 147.884 48.475 147.884 47.175C147.884 45.875 148.109 44.6833 148.559 43.6C149.025 42.5 149.684 41.5417 150.534 40.725C151.384 39.9083 152.384 39.275 153.534 38.825C154.7 38.375 155.967 38.15 157.334 38.15C158.3 38.15 159.209 38.275 160.059 38.525C160.925 38.775 161.709 39.1167 162.409 39.55C163.109 39.9833 163.7 40.4833 164.184 41.05L161.609 43.775C161.192 43.375 160.759 43.0417 160.309 42.775C159.875 42.5083 159.409 42.3 158.909 42.15C158.409 41.9833 157.875 41.9 157.309 41.9C156.575 41.9 155.9 42.0333 155.284 42.3C154.684 42.5667 154.15 42.9417 153.684 43.425C153.234 43.8917 152.884 44.45 152.634 45.1C152.384 45.7333 152.259 46.425 152.259 47.175C152.259 47.925 152.392 48.625 152.659 49.275C152.925 49.925 153.292 50.4917 153.759 50.975C154.225 51.4417 154.775 51.8167 155.409 52.1C156.059 52.3667 156.75 52.5 157.484 52.5C158 52.5 158.484 52.4167 158.934 52.25C159.4 52.0833 159.8 51.8583 160.134 51.575C160.467 51.2917 160.734 50.9583 160.934 50.575C161.134 50.175 161.234 49.75 161.234 49.3V48.65L161.784 49.5H156.959V46.175H165.184C165.217 46.3583 165.242 46.6083 165.259 46.925C165.275 47.2417 165.284 47.55 165.284 47.85C165.3 48.15 165.309 48.375 165.309 48.525C165.309 49.6583 165.1 50.7 164.684 51.65C164.284 52.5833 163.717 53.3917 162.984 54.075C162.25 54.7583 161.384 55.2917 160.384 55.675C159.384 56.0583 158.3 56.25 157.134 56.25ZM168.564 56V38.5H176.114C177.214 38.5 178.189 38.75 179.039 39.25C179.906 39.75 180.589 40.4333 181.089 41.3C181.606 42.1667 181.864 43.1417 181.864 44.225C181.864 45.3583 181.606 46.375 181.089 47.275C180.589 48.1583 179.906 48.8583 179.039 49.375C178.189 49.8917 177.214 50.15 176.114 50.15H172.814V56H168.564ZM172.739 46.425H175.514C175.881 46.425 176.214 46.3333 176.514 46.15C176.814 45.9667 177.056 45.7167 177.239 45.4C177.423 45.0833 177.514 44.7167 177.514 44.3C177.514 43.8667 177.423 43.5 177.239 43.2C177.056 42.9 176.814 42.6667 176.514 42.5C176.214 42.3333 175.881 42.25 175.514 42.25H172.739V46.425ZM188.917 56V42.25H183.717V38.5H198.492V42.25H193.167V56H188.917Z" fill="white"/>
<path d="M21.1174 20.996C21.1982 20.5744 21.8018 20.5744 21.8826 20.996L21.9869 21.5403C22.3342 23.3525 23.728 24.7833 25.5305 25.1781V25.1781C25.8758 25.2538 25.8758 25.7462 25.5305 25.8219V25.8219C23.728 26.2167 22.3342 27.6475 21.9869 29.4597L21.8826 30.004C21.8018 30.4256 21.1982 30.4256 21.1174 30.004L21.0131 29.4597C20.6658 27.6475 19.272 26.2167 17.4695 25.8219V25.8219C17.1242 25.7462 17.1242 25.2538 17.4695 25.1781V25.1781C19.272 24.7833 20.6658 23.3525 21.0131 21.5403L21.1174 20.996Z" fill="url(#paint0_linear_115_108)"/>
<path d="M9.41734 31.315C9.56976 30.7095 10.4302 30.7095 10.5827 31.315L10.7186 31.8552C11.4521 34.7696 13.8421 36.9729 16.8065 37.4673V37.4673C17.4081 37.5677 17.4081 38.4323 16.8065 38.5327V38.5327C13.8421 39.0271 11.4521 41.2304 10.7186 44.1448L10.5827 44.685C10.4302 45.2905 9.56976 45.2905 9.41734 44.685L9.28139 44.1448C8.54788 41.2304 6.15785 39.0271 3.19351 38.5327V38.5327C2.59193 38.4323 2.59193 37.5677 3.19351 37.4673V37.4673C6.15785 36.9729 8.54788 34.7696 9.28138 31.8552L9.41734 31.315Z" fill="url(#paint1_linear_115_108)"/>
<path d="M27.0165 34.3553C27.2171 33.2628 28.7829 33.2628 28.9835 34.3553L29.3676 36.4461C30.291 41.474 34.1183 45.4699 39.1018 46.609V46.609C40.0489 46.8255 40.0489 48.1745 39.1018 48.391V48.391C34.1183 49.5301 30.291 53.526 29.3676 58.5539L28.9835 60.6447C28.7829 61.7372 27.2171 61.7372 27.0165 60.6447L26.6324 58.5539C25.709 53.526 21.8817 49.5301 16.8982 48.391V48.391C15.9511 48.1745 15.9511 46.8255 16.8982 46.609V46.609C21.8817 45.4699 25.709 41.474 26.6324 36.4461L27.0165 34.3553Z" fill="url(#paint2_linear_115_108)"/>
<defs>
<linearGradient id="paint0_linear_115_108" x1="21.5" y1="19" x2="21.5" y2="32" gradientUnits="userSpaceOnUse">
<stop stop-color="#0075FF" stop-opacity="0.52"/>
<stop offset="0.22" stop-color="white"/>
<stop offset="1" stop-color="#0075FF" stop-opacity="0.75"/>
</linearGradient>
<linearGradient id="paint1_linear_115_108" x1="10" y1="29" x2="10" y2="47" gradientUnits="userSpaceOnUse">
<stop stop-color="#0075FF" stop-opacity="0.52"/>
<stop offset="0.22" stop-color="white"/>
<stop offset="1" stop-color="#0075FF" stop-opacity="0.75"/>
</linearGradient>
<linearGradient id="paint2_linear_115_108" x1="28" y1="29" x2="28" y2="66" gradientUnits="userSpaceOnUse">
<stop stop-color="#0075FF" stop-opacity="0.52"/>
<stop offset="0.22" stop-color="white"/>
<stop offset="1" stop-color="#0075FF" stop-opacity="0.75"/>
</linearGradient>
</defs>
</svg>
